STARTFONT 2.1
FONT -Fondu-Espy Sans-Medium-R-Normal--16-150-75-75-P-94-MacRoman-1
SIZE 15 75 75
FONTBOUNDINGBOX 21 20 -2 -4
COMMENT Created by Fondu from a mac NFNT/FONT resource
STARTPROPERTIES 17
FOUNDRY "Fondu"
FAMILY_NAME "Espy Sans"
WEIGHT_NAME "Medium"
SLANT "R"
SETWIDTH_NAME "Normal"
ADD_STYLE_NAME ""
PIXEL_SIZE 16
POINT_SIZE 150
RESOLUTION_X 75
RESOLUTION_Y 75
SPACING "P"
AVERAGE_WIDTH 94
CHARSET_REGISTRY "MacRoman"
CHARSET_ENCODING "1"
FONT_ASCENT 16
FONT_DESCENT 4
FACE_NAME "Espy Sans 16"
ENDPROPERTIES
CHARS 224
STARTCHAR space
ENCODING 32
SWIDTH 250 0
DWIDTH 4 0
BBX 0 0 -2 -4
BITMAP
ENDCHAR
STARTCHAR exclam
ENCODING 33
SWIDTH 250 0
DWIDTH 4 0
BBX 2 12 1 0
BITMAP
C0
C0
C0
C0
C0
C0
C0
C0
C0
00
C0
C0
ENDCHAR
STARTCHAR quotedbl
ENCODING 34
SWIDTH 437 0
DWIDTH 7 0
BBX 5 4 1 9
BITMAP
D8
D8
48
48
ENDCHAR
STARTCHAR numbersign
ENCODING 35
SWIDTH 875 0
DWIDTH 14 0
BBX 12 11 1 0
BITMAP
0660
0660
0CC0
3FF0
0CC0
1980
1980
FFE0
3300
6600
6600
ENDCHAR
STARTCHAR dollar
ENCODING 36
SWIDTH 562 0
DWIDTH 9 0
BBX 7 15 1 -2
BITMAP
10
10
7E
D0
D0
F0
78
3C
1E
16
16
16
FC
10
10
ENDCHAR
STARTCHAR percent
ENCODING 37
SWIDTH 875 0
DWIDTH 14 0
BBX 12 11 1 0
BITMAP
7860
CC60
CCC0
CD80
7B00
0600
0DE0
1B30
3330
6330
61E0
ENDCHAR
STARTCHAR ampersand
ENCODING 38
SWIDTH 812 0
DWIDTH 13 0
BBX 11 12 1 0
BITMAP
3C00
6600
6600
6C00
3800
3800
6C60
C6C0
C380
C380
E6C0
7C60
ENDCHAR
STARTCHAR quotesingle
ENCODING 39
SWIDTH 250 0
DWIDTH 4 0
BBX 2 4 1 9
BITMAP
C0
C0
40
40
ENDCHAR
STARTCHAR parenleft
ENCODING 40
SWIDTH 437 0
DWIDTH 7 0
BBX 5 15 1 -2
BITMAP
18
30
60
60
C0
C0
C0
C0
C0
C0
C0
60
60
30
18
ENDCHAR
STARTCHAR parenright
ENCODING 41
SWIDTH 437 0
DWIDTH 7 0
BBX 5 15 1 -2
BITMAP
C0
60
30
30
18
18
18
18
18
18
18
30
30
60
C0
ENDCHAR
STARTCHAR asterisk
ENCODING 42
SWIDTH 437 0
DWIDTH 7 0
BBX 5 6 1 6
BITMAP
20
A8
70
70
A8
20
ENDCHAR
STARTCHAR plus
ENCODING 43
SWIDTH 562 0
DWIDTH 9 0
BBX 7 7 1 2
BITMAP
10
10
10
FE
10
10
10
ENDCHAR
STARTCHAR comma
ENCODING 44
SWIDTH 250 0
DWIDTH 4 0
BBX 2 4 1 -2
BITMAP
C0
C0
40
80
ENDCHAR
STARTCHAR hyphen
ENCODING 45
SWIDTH 500 0
DWIDTH 8 0
BBX 6 1 1 5
BITMAP
FC
ENDCHAR
STARTCHAR period
ENCODING 46
SWIDTH 250 0
DWIDTH 4 0
BBX 2 2 1 0
BITMAP
C0
C0
ENDCHAR
STARTCHAR slash
ENCODING 47
SWIDTH 562 0
DWIDTH 9 0
BBX 9 14 0 -2
BITMAP
0180
0300
0300
0600
0600
0C00
0C00
1800
1800
3000
3000
6000
6000
C000
ENDCHAR
STARTCHAR zero
ENCODING 48
SWIDTH 687 0
DWIDTH 11 0
BBX 9 12 1 0
BITMAP
3E00
6300
C180
C180
C180
C180
C180
C180
C180
C180
6300
3E00
ENDCHAR
STARTCHAR one
ENCODING 49
SWIDTH 687 0
DWIDTH 11 0
BBX 5 12 2 0
BITMAP
18
38
78
D8
98
18
18
18
18
18
18
18
ENDCHAR
STARTCHAR two
ENCODING 50
SWIDTH 687 0
DWIDTH 11 0
BBX 9 12 1 0
BITMAP
3F00
6380
C180
0180
0180
0300
0E00
1800
3000
6000
C000
FF80
ENDCHAR
STARTCHAR three
ENCODING 51
SWIDTH 687 0
DWIDTH 11 0
BBX 9 12 1 0
BITMAP
7F00
C380
0180
0180
0300
1E00
0300
0180
0180
0180
C380
7F00
ENDCHAR
STARTCHAR four
ENCODING 52
SWIDTH 687 0
DWIDTH 11 0
BBX 9 12 1 0
BITMAP
0300
0700
0F00
1300
2300
4300
C300
FF80
0300
0300
0300
0300
ENDCHAR
STARTCHAR five
ENCODING 53
SWIDTH 687 0
DWIDTH 11 0
BBX 9 12 1 0
BITMAP
FF00
C000
C000
C000
FF00
0380
0180
0180
0180
0180
C300
7E00
ENDCHAR
STARTCHAR six
ENCODING 54
SWIDTH 687 0
DWIDTH 11 0
BBX 9 12 1 0
BITMAP
0E00
3800
6000
4000
DE00
E300
C180
C180
C180
C180
6300
3E00
ENDCHAR
STARTCHAR seven
ENCODING 55
SWIDTH 687 0
DWIDTH 11 0
BBX 9 12 1 0
BITMAP
FF80
0180
0180
0300
0600
0600
0C00
0C00
0C00
1800
1800
1800
ENDCHAR
STARTCHAR eight
ENCODING 56
SWIDTH 687 0
DWIDTH 11 0
BBX 9 12 1 0
BITMAP
3E00
6300
C180
C180
6300
3E00
6300
C180
C180
C180
6300
3E00
ENDCHAR
STARTCHAR nine
ENCODING 57
SWIDTH 687 0
DWIDTH 11 0
BBX 9 12 1 0
BITMAP
3E00
6300
C180
C180
C180
C180
6380
3D80
0100
0300
0E00
3800
ENDCHAR
STARTCHAR colon
ENCODING 58
SWIDTH 250 0
DWIDTH 4 0
BBX 2 8 1 0
BITMAP
C0
C0
00
00
00
00
C0
C0
ENDCHAR
STARTCHAR semicolon
ENCODING 59
SWIDTH 250 0
DWIDTH 4 0
BBX 2 10 1 -2
BITMAP
C0
C0
00
00
00
00
C0
C0
40
80
ENDCHAR
STARTCHAR less
ENCODING 60
SWIDTH 625 0
DWIDTH 10 0
BBX 8 7 1 2
BITMAP
03
0E
38
E0
38
0E
03
ENDCHAR
STARTCHAR equal
ENCODING 61
SWIDTH 625 0
DWIDTH 10 0
BBX 8 4 1 4
BITMAP
FF
00
00
FF
ENDCHAR
STARTCHAR greater
ENCODING 62
SWIDTH 625 0
DWIDTH 10 0
BBX 8 7 1 2
BITMAP
C0
70
1C
07
1C
70
C0
ENDCHAR
STARTCHAR question
ENCODING 63
SWIDTH 437 0
DWIDTH 7 0
BBX 6 12 0 0
BITMAP
F8
0C
0C
0C
18
30
60
60
60
00
60
60
ENDCHAR
STARTCHAR at
ENCODING 64
SWIDTH 812 0
DWIDTH 13 0
BBX 11 9 0 0
BITMAP
3F80
60C0
CE60
DB60
DB60
DB60
CCC0
6000
3E00
ENDCHAR
STARTCHAR A
ENCODING 65
SWIDTH 750 0
DWIDTH 12 0
BBX 12 12 0 0
BITMAP
0600
0600
0F00
0B00
1B80
1180
3180
20C0
7FC0
40E0
C060
8070
ENDCHAR
STARTCHAR B
ENCODING 66
SWIDTH 687 0
DWIDTH 11 0
BBX 9 12 1 0
BITMAP
FE00
C700
C300
C300
C600
FE00
C300
C180
C180
C180
C380
FF00
ENDCHAR
STARTCHAR C
ENCODING 67
SWIDTH 687 0
DWIDTH 11 0
BBX 9 12 1 0
BITMAP
1F80
3800
6000
E000
C000
C000
C000
C000
E000
6000
3800
1F80
ENDCHAR
STARTCHAR D
ENCODING 68
SWIDTH 750 0
DWIDTH 12 0
BBX 10 12 1 0
BITMAP
FE00
C300
C180
C1C0
C0C0
C0C0
C0C0
C0C0
C1C0
C180
C300
FE00
ENDCHAR
STARTCHAR E
ENCODING 69
SWIDTH 562 0
DWIDTH 9 0
BBX 7 12 1 0
BITMAP
FE
C0
C0
C0
C0
FC
C0
C0
C0
C0
C0
FE
ENDCHAR
STARTCHAR F
ENCODING 70
SWIDTH 500 0
DWIDTH 8 0
BBX 7 12 1 0
BITMAP
FE
C0
C0
C0
C0
FC
C0
C0
C0
C0
C0
C0
ENDCHAR
STARTCHAR G
ENCODING 71
SWIDTH 812 0
DWIDTH 13 0
BBX 11 12 1 0
BITMAP
1FC0
3000
6000
E000
C000
C000
C3E0
C060
E060
6060
3060
1FE0
ENDCHAR
STARTCHAR H
ENCODING 72
SWIDTH 750 0
DWIDTH 12 0
BBX 10 12 1 0
BITMAP
C0C0
C0C0
C0C0
C0C0
C0C0
FFC0
C0C0
C0C0
C0C0
C0C0
C0C0
C0C0
ENDCHAR
STARTCHAR I
ENCODING 73
SWIDTH 250 0
DWIDTH 4 0
BBX 2 12 1 0
BITMAP
C0
C0
C0
C0
C0
C0
C0
C0
C0
C0
C0
C0
ENDCHAR
STARTCHAR J
ENCODING 74
SWIDTH 437 0
DWIDTH 7 0
BBX 6 12 0 0
BITMAP
0C
0C
0C
0C
0C
0C
0C
0C
0C
0C
1C
F8
ENDCHAR
STARTCHAR K
ENCODING 75
SWIDTH 625 0
DWIDTH 10 0
BBX 9 12 1 0
BITMAP
C300
C600
CC00
D800
F000
E000
F000
D800
CC00
C600
C300
C180
ENDCHAR
STARTCHAR L
ENCODING 76
SWIDTH 562 0
DWIDTH 9 0
BBX 8 12 1 0
BITMAP
C0
C0
C0
C0
C0
C0
C0
C0
C0
C0
C0
FF
ENDCHAR
STARTCHAR M
ENCODING 77
SWIDTH 1000 0
DWIDTH 16 0
BBX 14 12 1 0
BITMAP
E01C
E01C
B02C
B02C
984C
984C
8C8C
8C8C
870C
870C
820C
820C
ENDCHAR
STARTCHAR N
ENCODING 78
SWIDTH 750 0
DWIDTH 12 0
BBX 10 12 1 0
BITMAP
8040
C040
E040
F040
B840
9C40
8E40
8740
83C0
81C0
80C0
8040
ENDCHAR
STARTCHAR O
ENCODING 79
SWIDTH 875 0
DWIDTH 14 0
BBX 12 12 1 0
BITMAP
1F80
30C0
6060
E070
C030
C030
C030
C030
E070
6060
30C0
1F80
ENDCHAR
STARTCHAR P
ENCODING 80
SWIDTH 687 0
DWIDTH 11 0
BBX 9 12 1 0
BITMAP
FE00
C300
C180
C180
C180
C180
C300
FE00
C000
C000
C000
C000
ENDCHAR
STARTCHAR Q
ENCODING 81
SWIDTH 875 0
DWIDTH 14 0
BBX 12 15 1 -3
BITMAP
1F80
30C0
6060
E070
C030
C030
C030
C030
E070
6060
30C0
1F80
0300
0180
00E0
ENDCHAR
STARTCHAR R
ENCODING 82
SWIDTH 687 0
DWIDTH 11 0
BBX 10 12 1 0
BITMAP
FE00
C300
C180
C180
C180
C300
FE00
CC00
C600
C300
C180
C0C0
ENDCHAR
STARTCHAR S
ENCODING 83
SWIDTH 625 0
DWIDTH 10 0
BBX 8 12 1 0
BITMAP
3F
60
C0
C0
E0
78
1E
07
03
03
06
FC
ENDCHAR
STARTCHAR T
ENCODING 84
SWIDTH 625 0
DWIDTH 10 0
BBX 10 12 0 0
BITMAP
FFC0
0C00
0C00
0C00
0C00
0C00
0C00
0C00
0C00
0C00
0C00
0C00
ENDCHAR
STARTCHAR U
ENCODING 85
SWIDTH 750 0
DWIDTH 12 0
BBX 10 12 1 0
BITMAP
C0C0
C0C0
C0C0
C0C0
C0C0
C0C0
C0C0
C0C0
C0C0
C0C0
6180
3F00
ENDCHAR
STARTCHAR V
ENCODING 86
SWIDTH 687 0
DWIDTH 11 0
BBX 11 12 0 0
BITMAP
C060
C060
E040
60C0
6080
3180
3100
3B00
1A00
1E00
0C00
0C00
ENDCHAR
STARTCHAR W
ENCODING 87
SWIDTH 1000 0
DWIDTH 16 0
BBX 16 12 0 0
BITMAP
C183
C183
C182
63C6
62C4
62C4
366C
3468
3C78
1830
1830
1830
ENDCHAR
STARTCHAR X
ENCODING 88
SWIDTH 687 0
DWIDTH 11 0
BBX 11 12 0 0
BITMAP
E060
70C0
3080
1900
1F00
0E00
0E00
1F00
1300
2180
61C0
C0E0
ENDCHAR
STARTCHAR Y
ENCODING 89
SWIDTH 750 0
DWIDTH 12 0
BBX 12 12 0 0
BITMAP
E030
6020
3060
38C0
1880
0D80
0F00
0600
0600
0600
0600
0600
ENDCHAR
STARTCHAR Z
ENCODING 90
SWIDTH 687 0
DWIDTH 11 0
BBX 9 12 1 0
BITMAP
FF80
0380
0300
0600
0E00
0C00
1800
3800
3000
6000
E000
FF80
ENDCHAR
STARTCHAR bracketleft
ENCODING 91
SWIDTH 312 0
DWIDTH 5 0
BBX 3 15 1 -2
BITMAP
E0
C0
C0
C0
C0
C0
C0
C0
C0
C0
C0
C0
C0
C0
E0
ENDCHAR
STARTCHAR backslash
ENCODING 92
SWIDTH 500 0
DWIDTH 8 0
BBX 6 11 1 0
BITMAP
C0
C0
60
60
30
30
30
18
18
0C
0C
ENDCHAR
STARTCHAR bracketright
ENCODING 93
SWIDTH 312 0
DWIDTH 5 0
BBX 3 15 1 -2
BITMAP
E0
60
60
60
60
60
60
60
60
60
60
60
60
60
E0
ENDCHAR
STARTCHAR asciicircum
ENCODING 94
SWIDTH 437 0
DWIDTH 7 0
BBX 5 6 1 6
BITMAP
20
20
70
50
D8
88
ENDCHAR
STARTCHAR underscore
ENCODING 95
SWIDTH 500 0
DWIDTH 8 0
BBX 8 1 0 -1
BITMAP
FF
ENDCHAR
STARTCHAR grave
ENCODING 96
SWIDTH 375 0
DWIDTH 6 0
BBX 4 3 1 9
BITMAP
C0
60
10
ENDCHAR
STARTCHAR a
ENCODING 97
SWIDTH 625 0
DWIDTH 10 0
BBX 8 9 1 0
BITMAP
7E
07
03
3F
63
C3
C3
E7
7B
ENDCHAR
STARTCHAR b
ENCODING 98
SWIDTH 625 0
DWIDTH 10 0
BBX 8 12 1 0
BITMAP
C0
C0
C0
DE
E7
C3
C3
C3
C3
C3
C6
FC
ENDCHAR
STARTCHAR c
ENCODING 99
SWIDTH 562 0
DWIDTH 9 0
BBX 7 9 1 0
BITMAP
3E
60
C0
C0
C0
C0
C0
60
3E
ENDCHAR
STARTCHAR d
ENCODING 100
SWIDTH 625 0
DWIDTH 10 0
BBX 8 12 1 0
BITMAP
03
03
03
3F
63
C3
C3
C3
C3
C3
E7
7B
ENDCHAR
STARTCHAR e
ENCODING 101
SWIDTH 625 0
DWIDTH 10 0
BBX 8 9 1 0
BITMAP
3E
63
C3
FF
C0
C0
C0
60
3F
ENDCHAR
STARTCHAR f
ENCODING 102
SWIDTH 312 0
DWIDTH 5 0
BBX 6 12 0 0
BITMAP
3C
60
60
F8
60
60
60
60
60
60
60
60
ENDCHAR
STARTCHAR g
ENCODING 103
SWIDTH 625 0
DWIDTH 10 0
BBX 8 13 1 -4
BITMAP
3F
63
C3
C3
C3
C3
C3
E7
7B
03
03
06
7C
ENDCHAR
STARTCHAR h
ENCODING 104
SWIDTH 625 0
DWIDTH 10 0
BBX 8 12 1 0
BITMAP
C0
C0
C0
DE
E7
C3
C3
C3
C3
C3
C3
C3
ENDCHAR
STARTCHAR i
ENCODING 105
SWIDTH 250 0
DWIDTH 4 0
BBX 2 12 1 0
BITMAP
C0
C0
00
C0
C0
C0
C0
C0
C0
C0
C0
C0
ENDCHAR
STARTCHAR j
ENCODING 106
SWIDTH 250 0
DWIDTH 4 0
BBX 5 16 -2 -4
BITMAP
18
18
00
18
18
18
18
18
18
18
18
18
18
18
30
E0
ENDCHAR
STARTCHAR k
ENCODING 107
SWIDTH 562 0
DWIDTH 9 0
BBX 8 12 1 0
BITMAP
C0
C0
C0
C6
CC
D8
F0
F0
D8
CC
C6
C3
ENDCHAR
STARTCHAR l
ENCODING 108
SWIDTH 250 0
DWIDTH 4 0
BBX 2 12 1 0
BITMAP
C0
C0
C0
C0
C0
C0
C0
C0
C0
C0
C0
C0
ENDCHAR
STARTCHAR m
ENCODING 109
SWIDTH 1000 0
DWIDTH 16 0
BBX 14 9 1 0
BITMAP
DEF8
E79C
C30C
C30C
C30C
C30C
C30C
C30C
C30C
ENDCHAR
STARTCHAR n
ENCODING 110
SWIDTH 625 0
DWIDTH 10 0
BBX 8 9 1 0
BITMAP
DE
E7
C3
C3
C3
C3
C3
C3
C3
ENDCHAR
STARTCHAR o
ENCODING 111
SWIDTH 687 0
DWIDTH 11 0
BBX 9 9 1 0
BITMAP
3E00
6300
C180
C180
C180
C180
C180
6300
3E00
ENDCHAR
STARTCHAR p
ENCODING 112
SWIDTH 625 0
DWIDTH 10 0
BBX 8 13 1 -4
BITMAP
DE
E7
C3
C3
C3
C3
C3
C6
FC
C0
C0
C0
C0
ENDCHAR
STARTCHAR q
ENCODING 113
SWIDTH 625 0
DWIDTH 10 0
BBX 8 13 1 -4
BITMAP
3F
63
C3
C3
C3
C3
C3
E7
7B
03
03
03
03
ENDCHAR
STARTCHAR r
ENCODING 114
SWIDTH 437 0
DWIDTH 7 0
BBX 6 9 1 0
BITMAP
DC
F0
C0
C0
C0
C0
C0
C0
C0
ENDCHAR
STARTCHAR s
ENCODING 115
SWIDTH 500 0
DWIDTH 8 0
BBX 6 9 1 0
BITMAP
7C
C0
C0
E0
78
1C
0C
0C
F8
ENDCHAR
STARTCHAR t
ENCODING 116
SWIDTH 375 0
DWIDTH 6 0
BBX 6 11 0 0
BITMAP
60
60
FC
60
60
60
60
60
60
70
3C
ENDCHAR
STARTCHAR u
ENCODING 117
SWIDTH 625 0
DWIDTH 10 0
BBX 8 9 1 0
BITMAP
C3
C3
C3
C3
C3
C3
C3
E7
7B
ENDCHAR
STARTCHAR v
ENCODING 118
SWIDTH 562 0
DWIDTH 9 0
BBX 9 9 0 0
BITMAP
C180
C100
6300
6200
3600
3400
1C00
1800
0800
ENDCHAR
STARTCHAR w
ENCODING 119
SWIDTH 875 0
DWIDTH 14 0
BBX 14 9 0 0
BITMAP
C30C
C30C
C788
6598
6CD8
68D0
3870
3060
1020
ENDCHAR
STARTCHAR x
ENCODING 120
SWIDTH 625 0
DWIDTH 10 0
BBX 8 9 1 0
BITMAP
C3
C3
66
3C
18
3C
66
C3
C3
ENDCHAR
STARTCHAR y
ENCODING 121
SWIDTH 562 0
DWIDTH 9 0
BBX 10 13 -1 -4
BITMAP
60C0
6080
3180
3100
1B00
1A00
0E00
0C00
0800
1800
3000
6000
C000
ENDCHAR
STARTCHAR z
ENCODING 122
SWIDTH 562 0
DWIDTH 9 0
BBX 7 9 1 0
BITMAP
FE
06
0C
18
10
30
60
C0
FE
ENDCHAR
STARTCHAR braceleft
ENCODING 123
SWIDTH 375 0
DWIDTH 6 0
BBX 5 15 1 -2
BITMAP
38
60
60
60
60
60
60
C0
60
60
60
60
60
60
38
ENDCHAR
STARTCHAR bar
ENCODING 124
SWIDTH 250 0
DWIDTH 4 0
BBX 2 15 1 -2
BITMAP
C0
C0
C0
C0
C0
C0
C0
C0
C0
C0
C0
C0
C0
C0
C0
ENDCHAR
STARTCHAR braceright
ENCODING 125
SWIDTH 375 0
DWIDTH 6 0
BBX 5 15 0 -2
BITMAP
E0
30
30
30
30
30
30
18
30
30
30
30
30
30
E0
ENDCHAR
STARTCHAR asciitilde
ENCODING 126
SWIDTH 687 0
DWIDTH 11 0
BBX 9 4 1 5
BITMAP
7080
F880
8F80
8700
ENDCHAR
STARTCHAR char007f
ENCODING 127
SWIDTH 0 0
DWIDTH 0 0
BBX 0 0 -2 -4
BITMAP
ENDCHAR
STARTCHAR Adieresis
ENCODING 128
SWIDTH 750 0
DWIDTH 12 0
BBX 12 14 0 0
BITMAP
1980
0000
0600
0600
0F00
0B00
1B80
1180
3180
20C0
7FC0
40E0
C060
8070
ENDCHAR
STARTCHAR Aring
ENCODING 129
SWIDTH 750 0
DWIDTH 12 0
BBX 12 15 0 0
BITMAP
0600
0900
0600
0600
0600
0F00
0B00
1B80
1180
3180
20C0
7FC0
40E0
C060
8070
ENDCHAR
STARTCHAR Ccedilla
ENCODING 130
SWIDTH 687 0
DWIDTH 11 0
BBX 9 15 1 -3
BITMAP
1F80
3800
6000
E000
C000
C000
C000
C000
E000
6000
3800
1F80
0600
0600
1C00
ENDCHAR
STARTCHAR Eacute
ENCODING 131
SWIDTH 562 0
DWIDTH 9 0
BBX 7 16 1 0
BITMAP
0C
18
20
00
FE
C0
C0
C0
C0
FC
C0
C0
C0
C0
C0
FE
ENDCHAR
STARTCHAR Ntilde
ENCODING 132
SWIDTH 750 0
DWIDTH 12 0
BBX 10 15 1 0
BITMAP
1C80
2700
0000
8040
C040
E040
F040
B840
9C40
8E40
8740
83C0
81C0
80C0
8040
ENDCHAR
STARTCHAR Odieresis
ENCODING 133
SWIDTH 875 0
DWIDTH 14 0
BBX 12 14 1 0
BITMAP
1980
0000
1F80
30C0
6060
E070
C030
C030
C030
C030
E070
6060
30C0
1F80
ENDCHAR
STARTCHAR Udieresis
ENCODING 134
SWIDTH 750 0
DWIDTH 12 0
BBX 10 14 1 0
BITMAP
3300
0000
C0C0
C0C0
C0C0
C0C0
C0C0
C0C0
C0C0
C0C0
C0C0
C0C0
6180
3F00
ENDCHAR
STARTCHAR aacute
ENCODING 135
SWIDTH 625 0
DWIDTH 10 0
BBX 8 13 1 0
BITMAP
06
0C
10
00
7E
07
03
3F
63
C3
C3
E7
7B
ENDCHAR
STARTCHAR agrave
ENCODING 136
SWIDTH 625 0
DWIDTH 10 0
BBX 8 13 1 0
BITMAP
30
18
04
00
7E
07
03
3F
63
C3
C3
E7
7B
ENDCHAR
STARTCHAR acircumflex
ENCODING 137
SWIDTH 625 0
DWIDTH 10 0
BBX 8 13 1 0
BITMAP
08
1C
22
00
7E
07
03
3F
63
C3
C3
E7
7B
ENDCHAR
STARTCHAR adieresis
ENCODING 138
SWIDTH 625 0
DWIDTH 10 0
BBX 8 11 1 0
BITMAP
36
00
7E
07
03
3F
63
C3
C3
E7
7B
ENDCHAR
STARTCHAR atilde
ENCODING 139
SWIDTH 625 0
DWIDTH 10 0
BBX 8 12 1 0
BITMAP
39
4E
00
7E
07
03
3F
63
C3
C3
E7
7B
ENDCHAR
STARTCHAR aring
ENCODING 140
SWIDTH 625 0
DWIDTH 10 0
BBX 8 13 1 0
BITMAP
18
24
18
00
7E
07
03
3F
63
C3
C3
E7
7B
ENDCHAR
STARTCHAR ccedilla
ENCODING 141
SWIDTH 562 0
DWIDTH 9 0
BBX 7 12 1 -3
BITMAP
3E
60
C0
C0
C0
C0
C0
60
3E
18
18
70
ENDCHAR
STARTCHAR eacute
ENCODING 142
SWIDTH 625 0
DWIDTH 10 0
BBX 8 13 1 0
BITMAP
06
0C
10
00
3E
63
C3
FF
C0
C0
C0
60
3F
ENDCHAR
STARTCHAR egrave
ENCODING 143
SWIDTH 625 0
DWIDTH 10 0
BBX 8 13 1 0
BITMAP
30
18
04
00
3E
63
C3
FF
C0
C0
C0
60
3F
ENDCHAR
STARTCHAR ecircumflex
ENCODING 144
SWIDTH 625 0
DWIDTH 10 0
BBX 8 13 1 0
BITMAP
08
1C
22
00
3E
63
C3
FF
C0
C0
C0
60
3F
ENDCHAR
STARTCHAR edieresis
ENCODING 145
SWIDTH 625 0
DWIDTH 10 0
BBX 8 11 1 0
BITMAP
36
00
3E
63
C3
FF
C0
C0
C0
60
3F
ENDCHAR
STARTCHAR iacute
ENCODING 146
SWIDTH 250 0
DWIDTH 4 0
BBX 4 13 0 0
BITMAP
30
60
80
00
60
60
60
60
60
60
60
60
60
ENDCHAR
STARTCHAR igrave
ENCODING 147
SWIDTH 250 0
DWIDTH 4 0
BBX 4 13 0 0
BITMAP
C0
60
10
00
60
60
60
60
60
60
60
60
60
ENDCHAR
STARTCHAR icircumflex
ENCODING 148
SWIDTH 250 0
DWIDTH 4 0
BBX 5 13 0 0
BITMAP
20
70
88
00
60
60
60
60
60
60
60
60
60
ENDCHAR
STARTCHAR idieresis
ENCODING 149
SWIDTH 250 0
DWIDTH 4 0
BBX 5 12 0 0
BITMAP
D8
00
00
60
60
60
60
60
60
60
60
60
ENDCHAR
STARTCHAR ntilde
ENCODING 150
SWIDTH 625 0
DWIDTH 10 0
BBX 8 12 1 0
BITMAP
39
4E
00
DE
E7
C3
C3
C3
C3
C3
C3
C3
ENDCHAR
STARTCHAR oacute
ENCODING 151
SWIDTH 687 0
DWIDTH 11 0
BBX 9 13 1 0
BITMAP
0600
0C00
1000
0000
3E00
6300
C180
C180
C180
C180
C180
6300
3E00
ENDCHAR
STARTCHAR ograve
ENCODING 152
SWIDTH 687 0
DWIDTH 11 0
BBX 9 13 1 0
BITMAP
3000
1800
0400
0000
3E00
6300
C180
C180
C180
C180
C180
6300
3E00
ENDCHAR
STARTCHAR ocircumflex
ENCODING 153
SWIDTH 687 0
DWIDTH 11 0
BBX 9 13 1 0
BITMAP
0800
1C00
2200
0000
3E00
6300
C180
C180
C180
C180
C180
6300
3E00
ENDCHAR
STARTCHAR odieresis
ENCODING 154
SWIDTH 687 0
DWIDTH 11 0
BBX 9 11 1 0
BITMAP
3600
0000
3E00
6300
C180
C180
C180
C180
C180
6300
3E00
ENDCHAR
STARTCHAR otilde
ENCODING 155
SWIDTH 687 0
DWIDTH 11 0
BBX 9 12 1 0
BITMAP
3900
4E00
0000
3E00
6300
C180
C180
C180
C180
C180
6300
3E00
ENDCHAR
STARTCHAR uacute
ENCODING 156
SWIDTH 625 0
DWIDTH 10 0
BBX 8 13 1 0
BITMAP
06
0C
10
00
C3
C3
C3
C3
C3
C3
C3
E7
7B
ENDCHAR
STARTCHAR ugrave
ENCODING 157
SWIDTH 625 0
DWIDTH 10 0
BBX 8 13 1 0
BITMAP
60
30
08
00
C3
C3
C3
C3
C3
C3
C3
E7
7B
ENDCHAR
STARTCHAR ucircumflex
ENCODING 158
SWIDTH 625 0
DWIDTH 10 0
BBX 8 13 1 0
BITMAP
08
1C
22
00
C3
C3
C3
C3
C3
C3
C3
E7
7B
ENDCHAR
STARTCHAR udieresis
ENCODING 159
SWIDTH 625 0
DWIDTH 10 0
BBX 8 11 1 0
BITMAP
36
00
C3
C3
C3
C3
C3
C3
C3
E7
7B
ENDCHAR
STARTCHAR dagger
ENCODING 160
SWIDTH 812 0
DWIDTH 13 0
BBX 11 11 1 0
BITMAP
60C0
9120
9120
7FC0
1100
1100
1100
7FC0
9120
9120
60C0
ENDCHAR
STARTCHAR degree
ENCODING 161
SWIDTH 375 0
DWIDTH 6 0
BBX 4 4 1 8
BITMAP
60
90
90
60
ENDCHAR
STARTCHAR cent
ENCODING 162
SWIDTH 562 0
DWIDTH 9 0
BBX 7 13 1 -2
BITMAP
08
08
3E
68
C8
C8
C8
C8
C8
68
3E
08
08
ENDCHAR
STARTCHAR sterling
ENCODING 163
SWIDTH 562 0
DWIDTH 9 0
BBX 7 12 1 0
BITMAP
1E
20
60
60
60
FC
60
60
60
60
60
FE
ENDCHAR
STARTCHAR section
ENCODING 164
SWIDTH 937 0
DWIDTH 15 0
BBX 13 13 1 -1
BITMAP
0200
0700
0F80
0780
3320
7870
F8F8
70F0
2660
0F00
0F80
0700
0200
ENDCHAR
STARTCHAR bullet
ENCODING 165
SWIDTH 437 0
DWIDTH 7 0
BBX 5 5 1 4
BITMAP
70
F8
F8
F8
70
ENDCHAR
STARTCHAR paragraph
ENCODING 166
SWIDTH 625 0
DWIDTH 10 0
BBX 8 12 1 0
BITMAP
7F
F3
F3
F3
F3
73
13
13
13
13
13
13
ENDCHAR
STARTCHAR germandbls
ENCODING 167
SWIDTH 687 0
DWIDTH 11 0
BBX 9 12 1 0
BITMAP
7C00
C600
C600
C600
CC00
DE00
C300
C180
C180
C180
C180
DF00
ENDCHAR
STARTCHAR registered
ENCODING 168
SWIDTH 687 0
DWIDTH 11 0
BBX 9 9 1 0
BITMAP
3E00
4100
BC80
A280
BC80
A480
A280
4100
3E00
ENDCHAR
STARTCHAR copyright
ENCODING 169
SWIDTH 687 0
DWIDTH 11 0
BBX 9 9 1 0
BITMAP
3E00
4100
9C80
A080
A080
A080
9C80
4100
3E00
ENDCHAR
STARTCHAR trademark
ENCODING 170
SWIDTH 687 0
DWIDTH 11 0
BBX 9 4 1 8
BITMAP
E880
4D80
4A80
4A80
ENDCHAR
STARTCHAR acute
ENCODING 171
SWIDTH 375 0
DWIDTH 6 0
BBX 4 3 1 10
BITMAP
30
60
80
ENDCHAR
STARTCHAR dieresis
ENCODING 172
SWIDTH 500 0
DWIDTH 8 0
BBX 6 1 1 11
BITMAP
CC
ENDCHAR
STARTCHAR notequal
ENCODING 173
SWIDTH 625 0
DWIDTH 10 0
BBX 8 8 1 2
BITMAP
02
04
FF
08
10
FF
20
40
ENDCHAR
STARTCHAR AE
ENCODING 174
SWIDTH 1000 0
DWIDTH 16 0
BBX 15 12 0 0
BITMAP
03FE
06C0
06C0
0CC0
0CC0
18FC
18C0
30C0
3FC0
60C0
60C0
C0FE
ENDCHAR
STARTCHAR Oslash
ENCODING 175
SWIDTH 875 0
DWIDTH 14 0
BBX 12 12 1 0
BITMAP
1F90
30E0
6060
E0F0
C130
C230
C430
C830
F070
6060
70C0
9F80
ENDCHAR
STARTCHAR infinity
ENCODING 176
SWIDTH 875 0
DWIDTH 14 0
BBX 12 5 1 4
BITMAP
79E0
8710
8610
8E10
79E0
ENDCHAR
STARTCHAR plusminus
ENCODING 177
SWIDTH 562 0
DWIDTH 9 0
BBX 7 8 1 2
BITMAP
10
10
10
FE
10
10
10
FE
ENDCHAR
STARTCHAR lessequal
ENCODING 178
SWIDTH 562 0
DWIDTH 9 0
BBX 7 7 1 2
BITMAP
0E
38
E0
38
0E
00
FE
ENDCHAR
STARTCHAR greaterequal
ENCODING 179
SWIDTH 562 0
DWIDTH 9 0
BBX 7 7 1 2
BITMAP
E0
38
0E
38
E0
00
FE
ENDCHAR
STARTCHAR yen
ENCODING 180
SWIDTH 625 0
DWIDTH 10 0
BBX 10 11 0 0
BITMAP
C0C0
6080
6180
3100
1B00
1E00
7F80
0C00
7F80
0C00
0C00
ENDCHAR
STARTCHAR mu
ENCODING 181
SWIDTH 625 0
DWIDTH 10 0
BBX 8 12 1 -3
BITMAP
C3
C3
C3
C3
C3
C3
C3
C7
FB
C0
C0
C0
ENDCHAR
STARTCHAR partialdiff
ENCODING 182
SWIDTH 562 0
DWIDTH 9 0
BBX 7 12 1 0
BITMAP
78
0C
06
06
3E
46
C6
C6
C6
C6
E4
78
ENDCHAR
STARTCHAR summation
ENCODING 183
SWIDTH 625 0
DWIDTH 10 0
BBX 8 13 1 -1
BITMAP
FF
C1
E0
70
38
1C
0C
18
30
60
C1
FF
FF
ENDCHAR
STARTCHAR product
ENCODING 184
SWIDTH 750 0
DWIDTH 12 0
BBX 10 13 1 -1
BITMAP
FFC0
6180
6180
6180
6180
6180
6180
6180
6180
6180
6180
6180
F3C0
ENDCHAR
STARTCHAR pi
ENCODING 185
SWIDTH 625 0
DWIDTH 10 0
BBX 8 8 1 0
BITMAP
FF
66
66
66
66
66
67
E6
ENDCHAR
STARTCHAR integral
ENCODING 186
SWIDTH 375 0
DWIDTH 6 0
BBX 6 18 0 -4
BITMAP
1C
30
30
30
30
30
30
30
30
30
30
30
30
30
30
30
30
E0
ENDCHAR
STARTCHAR ordfeminine
ENCODING 187
SWIDTH 500 0
DWIDTH 8 0
BBX 6 7 1 5
BITMAP
7C
CC
CC
DC
6C
00
FC
ENDCHAR
STARTCHAR ordmasculine
ENCODING 188
SWIDTH 500 0
DWIDTH 8 0
BBX 6 7 1 5
BITMAP
78
CC
CC
CC
78
00
FC
ENDCHAR
STARTCHAR Omega
ENCODING 189
SWIDTH 812 0
DWIDTH 13 0
BBX 11 12 1 0
BITMAP
1F00
71C0
E0E0
C060
C060
C060
C060
60C0
2080
3180
B1A0
F1E0
ENDCHAR
STARTCHAR ae
ENCODING 190
SWIDTH 1000 0
DWIDTH 16 0
BBX 14 9 1 0
BITMAP
7EF8
078C
030C
3FFC
6300
C300
C300
E780
79FC
ENDCHAR
STARTCHAR oslash
ENCODING 191
SWIDTH 687 0
DWIDTH 11 0
BBX 9 9 1 0
BITMAP
3E80
6300
C380
C580
C980
D180
E180
6300
BE00
ENDCHAR
STARTCHAR questiondown
ENCODING 192
SWIDTH 500 0
DWIDTH 8 0
BBX 6 12 1 -3
BITMAP
18
18
00
18
18
18
30
60
C0
C0
C0
7C
ENDCHAR
STARTCHAR exclamdown
ENCODING 193
SWIDTH 250 0
DWIDTH 4 0
BBX 2 12 1 -3
BITMAP
C0
C0
00
C0
C0
C0
C0
C0
C0
C0
C0
C0
ENDCHAR
STARTCHAR logicalnot
ENCODING 194
SWIDTH 687 0
DWIDTH 11 0
BBX 9 4 1 3
BITMAP
FF80
0080
0080
0080
ENDCHAR
STARTCHAR radical
ENCODING 195
SWIDTH 562 0
DWIDTH 9 0
BBX 7 13 1 -1
BITMAP
02
02
02
04
04
04
C4
48
28
28
30
10
10
ENDCHAR
STARTCHAR florin
ENCODING 196
SWIDTH 687 0
DWIDTH 11 0
BBX 10 14 0 -2
BITMAP
01C0
0300
0300
0600
1F80
0600
0C00
0C00
0C00
1800
1800
3000
3000
E000
ENDCHAR
STARTCHAR approxequal
ENCODING 197
SWIDTH 687 0
DWIDTH 11 0
BBX 9 5 1 3
BITMAP
7880
8F00
0000
7880
8F00
ENDCHAR
STARTCHAR Delta
ENCODING 198
SWIDTH 812 0
DWIDTH 13 0
BBX 13 13 0 0
BITMAP
0200
0300
0500
0580
0880
08C0
1040
1060
2020
2030
4010
4018
FFF8
ENDCHAR
STARTCHAR guillemotleft
ENCODING 199
SWIDTH 687 0
DWIDTH 11 0
BBX 9 7 1 1
BITMAP
1980
3300
6600
CC00
6600
3300
1980
ENDCHAR
STARTCHAR guillemotright
ENCODING 200
SWIDTH 687 0
DWIDTH 11 0
BBX 9 7 1 1
BITMAP
CC00
6600
3300
1980
3300
6600
CC00
ENDCHAR
STARTCHAR ellipsis
ENCODING 201
SWIDTH 750 0
DWIDTH 12 0
BBX 10 2 1 0
BITMAP
CCC0
CCC0
ENDCHAR
STARTCHAR nbspace
ENCODING 202
SWIDTH 312 0
DWIDTH 5 0
BBX 0 0 -2 -4
BITMAP
ENDCHAR
STARTCHAR Agrave
ENCODING 203
SWIDTH 750 0
DWIDTH 12 0
BBX 12 16 0 0
BITMAP
0C00
0600
0100
0000
0600
0600
0F00
0B00
1B80
1180
3180
20C0
7FC0
40E0
C060
8070
ENDCHAR
STARTCHAR Atilde
ENCODING 204
SWIDTH 750 0
DWIDTH 12 0
BBX 12 15 0 0
BITMAP
0E40
1380
0000
0600
0600
0F00
0B00
1B80
1180
3180
20C0
7FC0
40E0
C060
8070
ENDCHAR
STARTCHAR Otilde
ENCODING 205
SWIDTH 875 0
DWIDTH 14 0
BBX 12 15 1 0
BITMAP
0E40
1380
0000
1F80
30C0
6060
E070
C030
C030
C030
C030
E070
6060
30C0
1F80
ENDCHAR
STARTCHAR OE
ENCODING 206
SWIDTH 1000 0
DWIDTH 16 0
BBX 14 12 1 0
BITMAP
1FFC
3180
6180
E180
C180
C1F8
C180
C180
E180
6180
3180
1FFC
ENDCHAR
STARTCHAR oe
ENCODING 207
SWIDTH 1062 0
DWIDTH 17 0
BBX 15 9 1 0
BITMAP
3E7C
63C6
C186
C1FE
C180
C180
C180
63C0
3E7E
ENDCHAR
STARTCHAR endash
ENCODING 208
SWIDTH 687 0
DWIDTH 11 0
BBX 9 1 1 5
BITMAP
FF80
ENDCHAR
STARTCHAR emdash
ENCODING 209
SWIDTH 1000 0
DWIDTH 16 0
BBX 14 1 1 5
BITMAP
FFFC
ENDCHAR
STARTCHAR quotedblleft
ENCODING 210
SWIDTH 437 0
DWIDTH 7 0
BBX 5 4 1 9
BITMAP
48
90
D8
D8
ENDCHAR
STARTCHAR quotedblright
ENCODING 211
SWIDTH 437 0
DWIDTH 7 0
BBX 5 4 1 9
BITMAP
D8
D8
48
90
ENDCHAR
STARTCHAR quoteleft
ENCODING 212
SWIDTH 250 0
DWIDTH 4 0
BBX 2 4 1 9
BITMAP
40
80
C0
C0
ENDCHAR
STARTCHAR quoteright
ENCODING 213
SWIDTH 250 0
DWIDTH 4 0
BBX 2 4 1 9
BITMAP
C0
C0
40
80
ENDCHAR
STARTCHAR divide
ENCODING 214
SWIDTH 625 0
DWIDTH 10 0
BBX 8 5 1 3
BITMAP
18
00
FF
00
18
ENDCHAR
STARTCHAR lozenge
ENCODING 215
SWIDTH 562 0
DWIDTH 9 0
BBX 7 14 1 -1
BITMAP
10
10
28
28
44
44
82
82
44
44
28
28
10
10
ENDCHAR
STARTCHAR ydieresis
ENCODING 216
SWIDTH 562 0
DWIDTH 9 0
BBX 10 15 -1 -4
BITMAP
1B00
0000
60C0
6080
3180
3100
1B00
1A00
0E00
0C00
0800
1800
3000
6000
C000
ENDCHAR
STARTCHAR Ydieresis
ENCODING 217
SWIDTH 750 0
DWIDTH 12 0
BBX 12 14 0 0
BITMAP
0CC0
0000
E030
6020
3060
38C0
1880
0D80
0F00
0600
0600
0600
0600
0600
ENDCHAR
STARTCHAR fraction
ENCODING 218
SWIDTH 562 0
DWIDTH 9 0
BBX 9 14 0 -2
BITMAP
0180
0300
0300
0600
0600
0C00
0C00
1800
1800
3000
3000
6000
6000
C000
ENDCHAR
STARTCHAR currency
ENCODING 219
SWIDTH 687 0
DWIDTH 11 0
BBX 9 9 1 0
BITMAP
9C80
6300
4100
8080
8080
8080
4100
6300
9C80
ENDCHAR
STARTCHAR guilsinglleft
ENCODING 220
SWIDTH 437 0
DWIDTH 7 0
BBX 5 7 1 1
BITMAP
18
30
60
C0
60
30
18
ENDCHAR
STARTCHAR guilsinglright
ENCODING 221
SWIDTH 437 0
DWIDTH 7 0
BBX 5 7 1 1
BITMAP
C0
60
30
18
30
60
C0
ENDCHAR
STARTCHAR fi
ENCODING 222
SWIDTH 562 0
DWIDTH 9 0
BBX 8 12 0 0
BITMAP
3B
63
60
FF
63
63
63
63
63
63
63
63
ENDCHAR
STARTCHAR fl
ENCODING 223
SWIDTH 562 0
DWIDTH 9 0
BBX 8 12 0 0
BITMAP
3F
63
63
FB
63
63
63
63
63
63
63
63
ENDCHAR
STARTCHAR daggerdbl
ENCODING 224
SWIDTH 812 0
DWIDTH 13 0
BBX 9 9 2 0
BITMAP
FF80
FF80
FF80
FF80
FF80
FF80
FF80
FF80
FF80
ENDCHAR
STARTCHAR periodcentered
ENCODING 225
SWIDTH 250 0
DWIDTH 4 0
BBX 2 2 1 4
BITMAP
C0
C0
ENDCHAR
STARTCHAR quotesinglbase
ENCODING 226
SWIDTH 250 0
DWIDTH 4 0
BBX 2 4 1 -2
BITMAP
C0
C0
40
80
ENDCHAR
STARTCHAR quotedblbase
ENCODING 227
SWIDTH 437 0
DWIDTH 7 0
BBX 5 4 1 -2
BITMAP
D8
D8
48
90
ENDCHAR
STARTCHAR perthousand
ENCODING 228
SWIDTH 1250 0
DWIDTH 20 0
BBX 18 11 1 0
BITMAP
786000
CC6000
CCC000
CD8000
7B0000
060000
0DE780
1B3CC0
333CC0
633CC0
61E780
ENDCHAR
STARTCHAR Acircumflex
ENCODING 229
SWIDTH 750 0
DWIDTH 12 0
BBX 12 16 0 0
BITMAP
0200
0700
0880
0000
0600
0600
0F00
0B00
1B80
1180
3180
20C0
7FC0
40E0
C060
8070
ENDCHAR
STARTCHAR Ecircumflex
ENCODING 230
SWIDTH 562 0
DWIDTH 9 0
BBX 7 16 1 0
BITMAP
10
38
44
00
FE
C0
C0
C0
C0
FC
C0
C0
C0
C0
C0
FE
ENDCHAR
STARTCHAR Aacute
ENCODING 231
SWIDTH 750 0
DWIDTH 12 0
BBX 12 16 0 0
BITMAP
0300
0600
0800
0000
0600
0600
0F00
0B00
1B80
1180
3180
20C0
7FC0
40E0
C060
8070
ENDCHAR
STARTCHAR Edieresis
ENCODING 232
SWIDTH 562 0
DWIDTH 9 0
BBX 7 14 1 0
BITMAP
66
00
FE
C0
C0
C0
C0
FC
C0
C0
C0
C0
C0
FE
ENDCHAR
STARTCHAR Egrave
ENCODING 233
SWIDTH 562 0
DWIDTH 9 0
BBX 7 16 1 0
BITMAP
60
30
08
00
FE
C0
C0
C0
C0
FC
C0
C0
C0
C0
C0
FE
ENDCHAR
STARTCHAR Iacute
ENCODING 234
SWIDTH 250 0
DWIDTH 4 0
BBX 4 16 0 0
BITMAP
30
60
80
00
60
60
60
60
60
60
60
60
60
60
60
60
ENDCHAR
STARTCHAR Icircumflex
ENCODING 235
SWIDTH 250 0
DWIDTH 4 0
BBX 5 16 0 0
BITMAP
20
70
88
00
60
60
60
60
60
60
60
60
60
60
60
60
ENDCHAR
STARTCHAR Idieresis
ENCODING 236
SWIDTH 250 0
DWIDTH 4 0
BBX 5 14 0 0
BITMAP
D8
00
60
60
60
60
60
60
60
60
60
60
60
60
ENDCHAR
STARTCHAR Igrave
ENCODING 237
SWIDTH 250 0
DWIDTH 4 0
BBX 4 16 0 0
BITMAP
C0
60
10
00
60
60
60
60
60
60
60
60
60
60
60
60
ENDCHAR
STARTCHAR Oacute
ENCODING 238
SWIDTH 875 0
DWIDTH 14 0
BBX 12 16 1 0
BITMAP
0180
0300
0400
0000
1F80
30C0
6060
E070
C030
C030
C030
C030
E070
6060
30C0
1F80
ENDCHAR
STARTCHAR Ocircumflex
ENCODING 239
SWIDTH 875 0
DWIDTH 14 0
BBX 12 16 1 0
BITMAP
0200
0700
0880
0000
1F80
30C0
6060
E070
C030
C030
C030
C030
E070
6060
30C0
1F80
ENDCHAR
STARTCHAR apple
ENCODING 240
SWIDTH 812 0
DWIDTH 13 0
BBX 11 13 1 0
BITMAP
0100
0300
0300
0200
39C0
7FE0
FFC0
FF80
FF80
7FC0
7FE0
3FC0
1980
ENDCHAR
STARTCHAR Ograve
ENCODING 241
SWIDTH 875 0
DWIDTH 14 0
BBX 12 16 1 0
BITMAP
0C00
0600
0100
0000
1F80
30C0
6060
E070
C030
C030
C030
C030
E070
6060
30C0
1F80
ENDCHAR
STARTCHAR Uacute
ENCODING 242
SWIDTH 750 0
DWIDTH 12 0
BBX 10 16 1 0
BITMAP
0300
0600
0800
0000
C0C0
C0C0
C0C0
C0C0
C0C0
C0C0
C0C0
C0C0
C0C0
C0C0
6180
3F00
ENDCHAR
STARTCHAR Ucircumflex
ENCODING 243
SWIDTH 750 0
DWIDTH 12 0
BBX 10 16 1 0
BITMAP
0400
0E00
1100
0000
C0C0
C0C0
C0C0
C0C0
C0C0
C0C0
C0C0
C0C0
C0C0
C0C0
6180
3F00
ENDCHAR
STARTCHAR Ugrave
ENCODING 244
SWIDTH 750 0
DWIDTH 12 0
BBX 10 16 1 0
BITMAP
3000
1800
0400
0000
C0C0
C0C0
C0C0
C0C0
C0C0
C0C0
C0C0
C0C0
C0C0
C0C0
6180
3F00
ENDCHAR
STARTCHAR dotlessi
ENCODING 245
SWIDTH 250 0
DWIDTH 4 0
BBX 2 9 1 0
BITMAP
C0
C0
C0
C0
C0
C0
C0
C0
C0
ENDCHAR
STARTCHAR circumflex
ENCODING 246
SWIDTH 437 0
DWIDTH 7 0
BBX 5 3 1 9
BITMAP
20
70
88
ENDCHAR
STARTCHAR tilde
ENCODING 247
SWIDTH 562 0
DWIDTH 9 0
BBX 7 2 1 10
BITMAP
72
9C
ENDCHAR
STARTCHAR macron
ENCODING 248
SWIDTH 375 0
DWIDTH 6 0
BBX 4 1 1 10
BITMAP
F0
ENDCHAR
STARTCHAR breve
ENCODING 249
SWIDTH 437 0
DWIDTH 7 0
BBX 5 2 1 10
BITMAP
88
70
ENDCHAR
STARTCHAR dotaccent
ENCODING 250
SWIDTH 250 0
DWIDTH 4 0
BBX 2 2 1 10
BITMAP
C0
C0
ENDCHAR
STARTCHAR ring
ENCODING 251
SWIDTH 375 0
DWIDTH 6 0
BBX 4 3 1 9
BITMAP
60
90
60
ENDCHAR
STARTCHAR cedilla
ENCODING 252
SWIDTH 312 0
DWIDTH 5 0
BBX 4 4 0 -3
BITMAP
60
30
30
E0
ENDCHAR
STARTCHAR hungarumlaut
ENCODING 253
SWIDTH 562 0
DWIDTH 9 0
BBX 7 3 1 9
BITMAP
36
6C
90
ENDCHAR
STARTCHAR ogonek
ENCODING 254
SWIDTH 312 0
DWIDTH 5 0
BBX 4 4 1 -3
BITMAP
60
C0
C0
70
ENDCHAR
STARTCHAR caron
ENCODING 255
SWIDTH 375 0
DWIDTH 6 0
BBX 5 3 1 9
BITMAP
88
70
20
ENDCHAR
ENDFONT
